<svg width="433" height="82" viewBox="0 0 433 82" fill="none" xmlns="http://www.w3.org/2000/svg">
<path d="M31.51 43.665C31 43.665 30.3483 43.665 29.555 43.665C28.7617 43.665 28.1667 43.6367 27.77 43.58L28.96 38.82H31.34C35.3633 38.82 38.5367 38.0833 40.86 36.61C43.24 35.08 44.9683 33.1817 46.045 30.915C47.1217 28.5917 47.66 26.2967 47.66 24.03C47.66 21.3667 47.0083 19.1567 45.705 17.4C44.4017 15.5867 42.5883 14.2267 40.265 13.32C37.9417 12.4133 35.2217 11.96 32.105 11.96C29.725 11.96 27.2883 12.3 24.795 12.98C22.3583 13.6033 20.0633 14.6233 17.91 16.04C15.7567 17.4567 14.0283 19.2983 12.725 21.565C11.4217 23.8317 10.77 26.6083 10.77 29.895C10.77 31.3117 10.94 32.615 11.28 33.805C11.62 34.995 12.1867 36.3833 12.98 37.97C12.3567 38.48 11.6483 38.8767 10.855 39.16C10.0617 39.3867 9.24 39.5 8.39 39.5C6.91667 39.5 5.585 39.1033 4.395 38.31C3.26167 37.5167 2.38333 36.4117 1.76 34.995C1.13667 33.5217 0.825 31.85 0.825 29.98C0.825 26.75 1.61833 23.775 3.205 21.055C4.84833 18.2783 7.115 15.8417 10.005 13.745C12.9517 11.6483 16.4083 10.005 20.375 8.815C24.3983 7.625 28.7617 7.03 33.465 7.03C37.1483 7.03 40.4633 7.42666 43.41 8.22C46.3567 8.95666 48.8783 10.0617 50.975 11.535C53.0717 12.9517 54.6867 14.7083 55.82 16.805C56.9533 18.845 57.52 21.1967 57.52 23.86C57.52 26.8067 56.84 29.4983 55.48 31.935C54.12 34.3717 52.2217 36.4683 49.785 38.225C47.405 39.925 44.6283 41.2567 41.455 42.22C38.3383 43.1833 35.0233 43.665 31.51 43.665ZM17.23 66.19C16.38 66.19 15.5017 66.0483 14.595 65.765C13.6883 65.4817 12.9517 65.0283 12.385 64.405C13.0083 63.895 13.575 63.215 14.085 62.365C14.595 61.515 15.0483 60.5233 15.445 59.39C15.8417 58.2567 16.1533 57.0383 16.38 55.735L22.585 24.285C22.9817 22.415 23.4917 20.8567 24.115 19.61C24.795 18.3633 25.6733 17.4283 26.75 16.805C27.8267 16.125 29.1583 15.785 30.745 15.785C32.3883 15.785 33.6633 16.125 34.57 16.805C35.5333 17.4283 36.1 18.1933 36.27 19.1C34.8533 19.78 33.89 20.8283 33.38 22.245C32.9267 23.605 32.53 25.0783 32.19 26.665L25.56 59.05C25.2767 60.6367 24.7383 61.9683 23.945 63.045C23.1517 64.065 22.1883 64.83 21.055 65.34C19.9217 65.9067 18.6467 66.19 17.23 66.19ZM73.2975 66.7C70.0675 66.7 67.2625 66.105 64.8825 64.915C62.5591 63.6683 60.7741 61.7983 59.5275 59.305C58.2808 56.8117 57.6575 53.6667 57.6575 49.87C57.6575 46.3 58.1391 42.7583 59.1025 39.245C60.1225 35.675 61.6241 32.445 63.6075 29.555C65.5908 26.665 68.1125 24.3417 71.1725 22.585C74.2891 20.8283 77.9441 19.95 82.1375 19.95C84.3475 19.95 86.3308 20.2617 88.0875 20.885C89.8441 21.5083 91.2325 22.5283 92.2525 23.945C93.2725 25.3617 93.7825 27.2883 93.7825 29.725C93.7825 33.0117 92.7908 35.7883 90.8075 38.055C88.8808 40.265 86.3025 41.965 83.0725 43.155C79.8425 44.2883 76.2725 44.855 72.3625 44.855C71.6258 44.855 70.8041 44.855 69.8975 44.855C69.0475 44.7983 68.3391 44.7417 67.7725 44.685C67.7158 45.5917 67.6591 46.4983 67.6025 47.405C67.5458 48.255 67.5175 49.0483 67.5175 49.785C67.5175 52.845 68.0841 55.2533 69.2175 57.01C70.3508 58.71 72.4191 59.56 75.4225 59.56C77.8591 59.56 80.0408 58.9933 81.9675 57.86C83.8941 56.67 85.3958 54.9983 86.4725 52.845C87.2658 53.0717 87.8041 53.525 88.0875 54.205C88.3708 54.885 88.5125 55.5933 88.5125 56.33C88.5125 58.03 87.9175 59.6733 86.7275 61.26C85.5375 62.8467 83.8091 64.15 81.5425 65.17C79.2758 66.19 76.5275 66.7 73.2975 66.7ZM68.3675 40.52C70.2941 40.52 72.1925 40.3217 74.0625 39.925C75.9891 39.5283 77.7458 38.905 79.3325 38.055C80.9191 37.1483 82.1658 36.015 83.0725 34.655C84.0358 33.2383 84.5175 31.595 84.5175 29.725C84.5175 28.0817 84.1208 26.8633 83.3275 26.07C82.5908 25.22 81.5141 24.795 80.0975 24.795C78.5108 24.795 77.0375 25.305 75.6775 26.325C74.3741 27.2883 73.2408 28.5633 72.2775 30.15C71.3141 31.7367 70.4925 33.4367 69.8125 35.25C69.1891 37.0633 68.7075 38.82 68.3675 40.52ZM105.175 66.785C103.588 66.785 102.2 66.275 101.01 65.255C99.8201 64.235 99.2251 62.7617 99.2251 60.835C99.2251 59.7017 99.3951 58.115 99.7351 56.075C100.075 53.9783 100.472 51.7683 100.925 49.445C101.378 47.1217 101.832 44.9117 102.285 42.815C102.795 40.6617 103.163 38.9333 103.39 37.63L105.855 25.475H99.8201L100.16 22.925C102.88 21.905 105.572 20.545 108.235 18.845C110.898 17.145 113.25 15.275 115.29 13.235H117.925L116.225 21.65H122.855L122.09 25.475H115.375L109.51 54.375C109.34 55.2817 109.198 56.1033 109.085 56.84C108.972 57.52 108.887 58.1717 108.83 58.795C108.773 60.325 109.057 61.4017 109.68 62.025C110.303 62.5917 111.437 62.705 113.08 62.365C112.57 63.4417 111.918 64.2917 111.125 64.915C110.388 65.5383 109.51 65.9917 108.49 66.275C107.47 66.615 106.365 66.785 105.175 66.785ZM146.296 31.85C144.596 31.85 143.151 31.425 141.961 30.575C140.771 29.725 139.864 28.5067 139.241 26.92C138.674 25.3333 138.419 23.4917 138.476 21.395C138.533 18.845 139.213 16.3233 140.516 13.83C141.876 11.3367 143.916 9.29666 146.636 7.71C149.413 6.06667 152.926 5.245 157.176 5.245C160.123 5.245 162.956 5.47166 165.676 5.925C168.453 6.37833 171.144 6.86 173.751 7.37C176.414 7.82333 178.993 8.05 181.486 8.05C183.639 8.05 185.538 7.88 187.181 7.54C188.881 7.2 190.468 6.32166 191.941 4.905C192.338 5.35833 192.678 5.98166 192.961 6.77499C193.244 7.51166 193.386 8.24833 193.386 8.985C193.386 10.1183 193.103 11.2517 192.536 12.385C191.969 13.4617 191.063 14.3683 189.816 15.105C188.626 15.785 187.039 16.125 185.056 16.125C183.526 16.125 181.854 15.9267 180.041 15.53C178.284 15.0767 176.358 14.4817 174.261 13.745C172.164 12.9517 169.869 12.0733 167.376 11.11L167.291 10.685C165.761 10.1183 164.429 9.77833 163.296 9.665C162.219 9.495 160.944 9.41 159.471 9.41C156.071 9.41 153.379 10.4867 151.396 12.64C149.413 14.7933 148.393 17.7967 148.336 21.65C148.279 23.2933 148.421 24.88 148.761 26.41C149.158 27.94 149.724 29.4133 150.461 30.83C149.838 31.17 149.129 31.425 148.336 31.595C147.599 31.765 146.919 31.85 146.296 31.85ZM153.181 69.165C152.104 69.165 151.084 68.9667 150.121 68.57C149.158 68.1733 148.534 67.635 148.251 66.955C149.044 66.5017 149.696 65.935 150.206 65.255C150.716 64.575 151.169 63.725 151.566 62.705C151.963 61.6283 152.331 60.325 152.671 58.795L160.321 22.245C160.831 19.9783 161.596 17.91 162.616 16.04C163.636 14.17 164.996 12.6683 166.696 11.535C168.396 10.345 170.464 9.69333 172.901 9.58L161.936 60.665C161.539 62.6483 160.973 64.2633 160.236 65.51C159.499 66.8133 158.536 67.7483 157.346 68.315C156.213 68.8817 154.824 69.165 153.181 69.165ZM176.216 40.095C175.083 40.095 173.893 40.0383 172.646 39.925C171.456 39.8117 170.209 39.6417 168.906 39.415C167.603 39.1317 166.271 38.82 164.911 38.48L166.271 32.87C167.291 32.9267 168.311 32.9833 169.331 33.04C170.351 33.0967 171.371 33.1533 172.391 33.21C173.411 33.21 174.374 33.21 175.281 33.21C176.584 33.21 177.888 33.1817 179.191 33.125C180.551 33.0683 181.939 33.0117 183.356 32.955C183.413 33.295 183.469 33.6067 183.526 33.89C183.583 34.1733 183.611 34.4567 183.611 34.74C183.554 36.4967 182.846 37.8283 181.486 38.735C180.126 39.6417 178.369 40.095 176.216 40.095ZM186.482 66.02L194.982 21.65L203.057 20.63L202.037 28.28C203.113 25.8433 204.728 23.86 206.882 22.33C209.035 20.7433 211.443 19.95 214.107 19.95C216.883 19.95 218.895 20.7717 220.142 22.415C221.445 24.0583 222.097 26.07 222.097 28.45C222.097 31.2833 221.332 33.72 219.802 35.76C218.272 37.8 216.26 38.82 213.767 38.82C213.087 38.82 212.378 38.7067 211.642 38.48C210.962 38.2533 210.423 37.8567 210.027 37.29C210.763 36.3267 211.358 35.165 211.812 33.805C212.265 32.3883 212.492 31.1133 212.492 29.98C212.492 28.9033 212.237 28.0533 211.727 27.43C211.273 26.8067 210.508 26.495 209.432 26.495C208.072 26.495 206.882 27.005 205.862 28.025C204.842 28.9883 203.992 30.235 203.312 31.765C202.632 33.295 202.065 34.9383 201.612 36.695C201.215 38.395 200.875 39.9533 200.592 41.37L196.427 65L186.482 66.02ZM227.708 66.7C225.895 66.7 224.478 66.19 223.458 65.17C222.438 64.15 221.928 62.7333 221.928 60.92C221.928 60.24 221.985 59.4183 222.098 58.455C222.211 57.4917 222.353 56.5 222.523 55.48C222.693 54.4033 222.863 53.4117 223.033 52.505C223.26 51.5417 223.43 50.72 223.543 50.04L229.323 21.65L239.013 20.63L231.873 56.16C231.816 56.6133 231.731 57.2083 231.618 57.945C231.505 58.625 231.448 59.22 231.448 59.73C231.448 60.58 231.646 61.26 232.043 61.77C232.496 62.28 233.148 62.5633 233.998 62.62C233.658 64.0367 232.865 65.0567 231.618 65.68C230.428 66.36 229.125 66.7 227.708 66.7ZM236.293 14.17C234.48 14.17 232.978 13.745 231.788 12.895C230.598 11.9883 230.003 10.6567 230.003 8.9C230.003 7.03 230.626 5.67 231.873 4.82C233.12 3.91333 234.65 3.46 236.463 3.46C238.276 3.46 239.778 3.91333 240.968 4.82C242.158 5.67 242.753 6.97333 242.753 8.72999C242.753 10.6 242.13 11.9883 240.883 12.895C239.636 13.745 238.106 14.17 236.293 14.17ZM259.318 66.7C256.088 66.7 253.283 66.105 250.903 64.915C248.58 63.6683 246.795 61.7983 245.548 59.305C244.301 56.8117 243.678 53.6667 243.678 49.87C243.678 46.3 244.16 42.7583 245.123 39.245C246.143 35.675 247.645 32.445 249.628 29.555C251.611 26.665 254.133 24.3417 257.193 22.585C260.31 20.8283 263.965 19.95 268.158 19.95C270.368 19.95 272.351 20.2617 274.108 20.885C275.865 21.5083 277.253 22.5283 278.273 23.945C279.293 25.3617 279.803 27.2883 279.803 29.725C279.803 33.0117 278.811 35.7883 276.828 38.055C274.901 40.265 272.323 41.965 269.093 43.155C265.863 44.2883 262.293 44.855 258.383 44.855C257.646 44.855 256.825 44.855 255.918 44.855C255.068 44.7983 254.36 44.7417 253.793 44.685C253.736 45.5917 253.68 46.4983 253.623 47.405C253.566 48.255 253.538 49.0483 253.538 49.785C253.538 52.845 254.105 55.2533 255.238 57.01C256.371 58.71 258.44 59.56 261.443 59.56C263.88 59.56 266.061 58.9933 267.988 57.86C269.915 56.67 271.416 54.9983 272.493 52.845C273.286 53.0717 273.825 53.525 274.108 54.205C274.391 54.885 274.533 55.5933 274.533 56.33C274.533 58.03 273.938 59.6733 272.748 61.26C271.558 62.8467 269.83 64.15 267.563 65.17C265.296 66.19 262.548 66.7 259.318 66.7ZM254.388 40.52C256.315 40.52 258.213 40.3217 260.083 39.925C262.01 39.5283 263.766 38.905 265.353 38.055C266.94 37.1483 268.186 36.015 269.093 34.655C270.056 33.2383 270.538 31.595 270.538 29.725C270.538 28.0817 270.141 26.8633 269.348 26.07C268.611 25.22 267.535 24.795 266.118 24.795C264.531 24.795 263.058 25.305 261.698 26.325C260.395 27.2883 259.261 28.5633 258.298 30.15C257.335 31.7367 256.513 33.4367 255.833 35.25C255.21 37.0633 254.728 38.82 254.388 40.52ZM313.891 66.7C312.134 66.7 310.717 66.19 309.641 65.17C308.621 64.2067 308.111 62.5917 308.111 60.325C308.111 59.0783 308.281 57.4633 308.621 55.48C309.017 53.4967 309.471 51.4 309.981 49.19C310.491 46.9233 311.001 44.685 311.511 42.475C312.021 40.265 312.446 38.2817 312.786 36.525C313.182 34.7117 313.381 33.295 313.381 32.275C313.381 30.405 312.899 28.9883 311.936 28.025C310.972 27.005 309.697 26.495 308.111 26.495C305.901 26.495 304.031 27.26 302.501 28.79C300.971 30.32 299.724 32.2467 298.761 34.57C297.797 36.8367 297.089 39.1033 296.636 41.37L292.046 65L282.356 66.02L291.026 21.65L299.101 20.63L298.081 28.28C299.611 25.56 301.651 23.4917 304.201 22.075C306.751 20.6583 309.442 19.95 312.276 19.95C315.732 19.95 318.367 20.8567 320.181 22.67C321.994 24.4267 322.901 26.92 322.901 30.15C322.901 31.7367 322.731 33.5783 322.391 35.675C322.051 37.7717 321.597 40.01 321.031 42.39C320.521 44.7133 320.011 46.98 319.501 49.19C318.991 51.4 318.537 53.4117 318.141 55.225C317.801 57.0383 317.631 58.455 317.631 59.475C317.631 60.325 317.801 61.0333 318.141 61.6C318.481 62.1667 319.161 62.5067 320.181 62.62C319.841 64.0367 319.076 65.0567 317.886 65.68C316.696 66.36 315.364 66.7 313.891 66.7ZM341.248 66.7C338.358 66.7 336.006 66.02 334.193 64.66C332.436 63.2433 331.133 61.345 330.283 58.965C329.49 56.5283 329.093 53.7517 329.093 50.635C329.093 46.4417 329.66 42.5033 330.793 38.82C331.983 35.08 333.598 31.7933 335.638 28.96C337.735 26.1267 340.228 23.9167 343.118 22.33C346.008 20.7433 349.125 19.95 352.468 19.95C354.168 19.95 355.698 20.12 357.058 20.46C358.475 20.7433 359.976 21.1967 361.563 21.82L369.468 23.01C368.448 28.45 367.4 33.9467 366.323 39.5C365.303 44.9967 364.198 50.55 363.008 56.16C362.951 56.67 362.866 57.265 362.753 57.945C362.64 58.625 362.583 59.22 362.583 59.73C362.583 60.58 362.781 61.26 363.178 61.77C363.631 62.28 364.311 62.5633 365.218 62.62C364.935 63.5833 364.453 64.3767 363.773 65C363.15 65.5667 362.413 65.9917 361.563 66.275C360.77 66.5583 359.863 66.7 358.843 66.7C357.313 66.7 356.01 66.275 354.933 65.425C353.856 64.6317 353.233 63.4417 353.063 61.855C351.59 63.2717 349.833 64.4333 347.793 65.34C345.81 66.2467 343.628 66.7 341.248 66.7ZM344.988 61.6C347.141 61.6 348.87 60.8917 350.173 59.475C351.533 58.0583 352.61 56.3017 353.403 54.205C354.196 52.0517 354.791 49.9833 355.188 48L358.928 27.685C357.795 26.7783 356.605 26.1267 355.358 25.73C354.168 25.2767 353.063 25.05 352.043 25.05C350.286 25.05 348.7 25.56 347.283 26.58C345.923 27.6 344.705 28.9883 343.628 30.745C342.608 32.5017 341.73 34.5417 340.993 36.865C340.313 39.1883 339.803 41.6817 339.463 44.345C339.123 46.9517 338.953 49.5867 338.953 52.25C338.953 54.8567 339.378 57.0667 340.228 58.88C341.078 60.6933 342.665 61.6 344.988 61.6ZM369.298 23.86L359.948 23.18C360.515 20.0633 360.996 16.9183 361.393 13.745C361.846 10.5717 362.101 7.85166 362.158 5.58499C362.158 4.905 362.13 4.28166 362.073 3.715C362.073 3.14833 362.016 2.61 361.903 2.1C362.413 1.76 363.065 1.47666 363.858 1.24999C364.651 1.02333 365.501 0.909999 366.408 0.909999C367.881 0.909999 369.241 1.36333 370.488 2.27C371.735 3.12 372.358 4.67833 372.358 6.945C372.358 7.56833 372.188 8.78666 371.848 10.6C371.565 12.4133 371.196 14.51 370.743 16.89C370.29 19.27 369.808 21.5933 369.298 23.86ZM380.44 66.7C378.627 66.7 377.182 66.19 376.105 65.17C375.085 64.15 374.575 62.7333 374.575 60.92C374.575 60.2967 374.632 59.56 374.745 58.71C374.859 57.86 375 56.8117 375.17 55.565C375.397 54.3183 375.709 52.76 376.105 50.89C376.502 49.02 376.955 46.7817 377.465 44.175C377.975 41.5683 378.599 38.48 379.335 34.91C380.072 31.34 380.922 27.26 381.885 22.67C382.452 19.44 382.934 16.295 383.33 13.235C383.727 10.1183 383.925 7.51166 383.925 5.415C383.925 4.735 383.897 4.13999 383.84 3.62999C383.784 3.06333 383.699 2.55333 383.585 2.1C384.152 1.76 384.832 1.47666 385.625 1.24999C386.419 1.02333 387.24 0.909999 388.09 0.909999C389.564 0.909999 390.924 1.36333 392.17 2.27C393.474 3.12 394.125 4.65 394.125 6.86C394.125 7.31333 394.012 8.22 393.785 9.58C393.559 10.94 393.275 12.5267 392.935 14.34C392.595 16.0967 392.227 17.9383 391.83 19.865C391.49 21.735 391.179 23.435 390.895 24.965C389.535 31.5383 388.43 36.9217 387.58 41.115C386.73 45.2517 386.05 48.51 385.54 50.89C385.087 53.27 384.747 55.0267 384.52 56.16C384.35 57.2933 384.237 58.0867 384.18 58.54C384.124 58.9933 384.095 59.39 384.095 59.73C384.095 60.58 384.294 61.26 384.69 61.77C385.144 62.28 385.795 62.5633 386.645 62.62C386.475 63.5833 386.05 64.3767 385.37 65C384.747 65.5667 384.01 65.9917 383.16 66.275C382.31 66.5583 381.404 66.7 380.44 66.7ZM402.382 82C400.626 82 399.237 81.4333 398.217 80.3C397.254 79.1667 396.772 77.6367 396.772 75.71C396.772 74.18 397.197 72.65 398.047 71.12C398.897 69.6467 399.946 68.23 401.192 66.87C402.496 65.5667 403.714 64.405 404.847 63.385H401.022C400.909 58.7383 400.796 54.4317 400.682 50.465C400.569 46.4983 400.427 42.8433 400.257 39.5C400.144 36.1 399.889 32.9833 399.492 30.15C399.209 27.8833 398.812 26.155 398.302 24.965C397.849 23.775 397.084 22.8683 396.007 22.245C396.631 21.5083 397.424 20.9417 398.387 20.545C399.351 20.1483 400.512 19.95 401.872 19.95C403.799 19.95 405.272 20.3183 406.292 21.055C407.369 21.7917 408.134 22.925 408.587 24.455C409.041 25.985 409.324 27.8833 409.437 30.15C409.494 31.0567 409.522 32.3317 409.522 33.975C409.579 35.5617 409.607 37.5733 409.607 40.01C409.664 42.39 409.664 45.3933 409.607 49.02L409.522 57.18C411.846 54.0633 413.942 50.8617 415.812 47.575C417.739 44.2317 419.269 40.8317 420.402 37.375C421.536 33.9183 422.102 30.5183 422.102 27.175C422.102 26.4383 422.074 25.645 422.017 24.795C421.961 23.945 421.791 23.095 421.507 22.245C422.244 21.565 423.122 21.0267 424.142 20.63C425.219 20.1767 426.352 19.95 427.542 19.95C428.676 19.95 429.611 20.205 430.347 20.715C431.084 21.1683 431.651 21.8767 432.047 22.84C432.444 23.8033 432.642 24.9367 432.642 26.24C432.642 28.1667 432.331 30.2067 431.707 32.36C431.141 34.5133 430.291 36.8083 429.157 39.245C428.081 41.6817 426.692 44.175 424.992 46.725C423.349 49.275 421.422 51.8533 419.212 54.46C417.059 57.01 414.622 59.5317 411.902 62.025C410.259 63.555 408.956 65 407.992 66.36C407.086 67.7767 406.632 69.6467 406.632 71.97C406.632 73.16 406.859 74.435 407.312 75.795C407.822 77.2117 408.417 78.43 409.097 79.45C408.304 80.2433 407.312 80.8667 406.122 81.32C404.932 81.7733 403.686 82 402.382 82Z" fill="black"/>
</svg>
